<svg width="133" height="37" viewBox="0 0 133 37" fill="none" xmlns="http://www.w3.org/2000/svg">
<path fill-rule="evenodd" clip-rule="evenodd" d="M28.8741 7.96928L29.0365 8.98576C29.1584 9.92093 29.2193 10.8561 29.199 11.8116C29.199 13.9055 28.9553 15.9792 28.468 18.0121C27.8182 20.7566 26.6811 23.3792 25.1176 25.7374C23.3104 28.4209 20.691 31.0435 16.8939 33.1984L16.4269 33.4627L15.9599 33.1984C12.1628 31.0841 9.54339 28.4413 7.73622 25.7374C6.1524 23.3792 5.03561 20.777 4.38584 18.0121C3.89851 15.9792 3.65484 13.9055 3.65484 11.8116C3.65484 10.8764 3.69546 9.92093 3.81729 8.98576L3.95942 7.96928C3.97973 7.88796 3.97973 7.80664 3.95942 7.72533C3.93912 7.64401 3.91881 7.56269 3.8579 7.5017C3.81729 7.44071 3.75637 7.37972 3.69545 7.33906C3.63454 7.2984 3.55332 7.27807 3.4924 7.25774C3.41118 7.23741 3.32996 7.23741 3.24874 7.25774C3.16752 7.27807 3.08629 7.31873 3.02538 7.35939C2.96446 7.40005 2.90355 7.46104 2.86294 7.52203C2.82232 7.60335 2.80202 7.68467 2.78171 7.76598L2.61927 8.78247C2.49744 9.77862 2.43652 10.7951 2.43652 11.8116C2.43652 14.0072 2.70049 16.1825 3.20813 18.3171C3.55332 19.7605 4.02034 21.1836 4.60919 22.5457C5.19805 23.9077 5.90874 25.2088 6.74126 26.449C8.64996 29.2951 11.4115 32.0803 15.3913 34.2759L16.1426 34.7028C16.2442 34.7435 16.3457 34.7638 16.4472 34.7638C16.5487 34.7638 16.6503 34.7435 16.7518 34.7028L17.5031 34.2759C21.4626 32.0599 24.2445 29.2748 26.1532 26.449C27.8182 23.9687 29.0162 21.2039 29.6863 18.3171C30.1939 16.1825 30.4376 14.0072 30.4376 11.8116C30.4376 10.7951 30.3767 9.77862 30.2548 8.76214L30.0924 7.74566C30.0721 7.66434 30.0518 7.58302 30.0112 7.5017C29.9706 7.44071 29.9097 7.37972 29.8487 7.33906C29.7878 7.2984 29.7066 7.25774 29.6254 7.23742C29.5442 7.21709 29.4629 7.21709 29.3817 7.23742C29.3005 7.25774 29.2193 7.27807 29.1381 7.31873C29.0771 7.35939 29.0162 7.42038 28.9756 7.48137C28.935 7.54236 28.8944 7.62368 28.8741 7.705V7.96928Z" fill="white"/>
<path fill-rule="evenodd" clip-rule="evenodd" d="M7.37121 7.27803L16.468 4.41155L25.7476 7.33902C25.8288 7.35935 25.91 7.35935 25.9912 7.35935C26.0724 7.35935 26.1537 7.33902 26.2349 7.29836C26.3161 7.2577 26.377 7.21704 26.4379 7.13573C26.4988 7.07474 26.5395 6.99342 26.5395 6.9121C26.5598 6.83078 26.5598 6.74946 26.5598 6.66814C26.5598 6.58682 26.5395 6.50551 26.4988 6.42419C26.4582 6.34287 26.4176 6.28188 26.3567 6.22089C26.2958 6.1599 26.2146 6.11924 26.1334 6.11924L16.6508 3.11045C16.5289 3.06979 16.4071 3.06979 16.2853 3.11045L7.02602 6.03792C6.9448 6.05825 6.88388 6.09891 6.80266 6.13957C6.74175 6.20056 6.68083 6.26155 6.66053 6.34287C6.61992 6.42419 6.59961 6.5055 6.59961 6.58682C6.59961 6.66814 6.59961 6.74946 6.61991 6.83078C6.64022 6.9121 6.68083 6.99342 6.72144 7.05441C6.76205 7.11539 6.84327 7.17638 6.92449 7.21704C6.98541 7.2577 7.06663 7.27803 7.16816 7.27803C7.20877 7.29836 7.28999 7.29836 7.37121 7.27803Z" fill="white"/>
<path fill-rule="evenodd" clip-rule="evenodd" d="M2.88333 8.1522L15.8991 34.4181C15.9397 34.5198 16.0209 34.6011 16.1021 34.6621C16.3052 34.7841 16.5488 34.7841 16.7519 34.6621C16.8534 34.6011 16.9346 34.5198 16.9955 34.4181L24.9349 19.0692L24.9552 19.0489L30.0316 8.13187C30.0722 8.05055 30.0925 7.96923 30.0925 7.88791C30.0925 7.80659 30.0925 7.72528 30.0519 7.64396C30.0316 7.56264 29.991 7.48132 29.9301 7.42033C29.8894 7.35934 29.8082 7.29835 29.7473 7.25769C29.6864 7.21703 29.6052 7.1967 29.5036 7.1967C29.4224 7.1967 29.3412 7.1967 29.26 7.21703C29.1788 7.23736 29.0975 7.27802 29.0366 7.33901C28.9757 7.4 28.9148 7.46099 28.8945 7.54231L23.8181 18.4593L16.427 32.7511L3.95952 7.54231C3.91891 7.48132 3.85799 7.4 3.81738 7.33901C3.75646 7.27802 3.67524 7.23736 3.59402 7.21703C3.5128 7.17637 3.43158 7.17637 3.35036 7.1967C3.26913 7.1967 3.18791 7.21703 3.10669 7.25769C3.04578 7.29835 2.96455 7.35934 2.92394 7.42033C2.88333 7.48132 2.84272 7.56264 2.82242 7.64396C2.80211 7.72528 2.78181 7.80659 2.80211 7.88791C2.82242 7.98956 2.84272 8.07088 2.88333 8.1522Z" fill="white"/>
<path fill-rule="evenodd" clip-rule="evenodd" d="M9.11737 19.8621H23.6154C23.6966 19.8621 23.7778 19.8418 23.859 19.8215C23.9403 19.8011 24.0012 19.7402 24.0418 19.6792C24.1027 19.6182 24.1433 19.5572 24.1636 19.4759C24.2245 19.3132 24.2245 19.1506 24.1636 18.988C24.1433 18.9066 24.0824 18.8456 24.0418 18.7847C23.9809 18.7237 23.92 18.683 23.859 18.6424C23.7778 18.622 23.6966 18.6017 23.6154 18.6017H9.11737C9.03615 18.6017 8.95493 18.622 8.8737 18.6424C8.79248 18.6627 8.73157 18.7237 8.69096 18.7847C8.63004 18.8456 8.58943 18.9066 8.56912 18.988C8.50821 19.1506 8.50821 19.3132 8.56912 19.4759C8.58943 19.5572 8.63004 19.6182 8.69096 19.6792C8.75187 19.7402 8.81279 19.7808 8.8737 19.8215C8.95493 19.8418 9.03615 19.8418 9.11737 19.8621ZM49.525 14.3935H40.1033C40.0221 14.3935 39.9409 14.4138 39.8597 14.4341C39.7784 14.4544 39.7175 14.5154 39.6769 14.5764C39.616 14.6374 39.5754 14.6984 39.5551 14.7797C39.5348 14.861 39.5145 14.9424 39.5145 15.0237V22.8506C39.5145 22.9319 39.5348 23.0132 39.5551 23.0946C39.5754 23.1759 39.616 23.2369 39.6769 23.2979C39.7378 23.3588 39.7987 23.3995 39.8597 23.4402C39.9409 23.4605 40.0221 23.4808 40.1033 23.4808H49.525V24.8022H40.1033C39.9815 24.8022 39.8597 24.7819 39.7378 24.7616C39.616 24.7413 39.4942 24.7006 39.3723 24.6599C39.2505 24.6193 39.149 24.5583 39.0474 24.4973C38.9459 24.416 38.8647 24.3347 38.7632 24.2533C38.5804 24.0704 38.4586 23.8671 38.3571 23.6435C38.3165 23.5215 38.2758 23.3995 38.2555 23.2775C38.2352 23.1555 38.2149 23.0336 38.2149 22.9116V15.044C38.2149 14.922 38.2352 14.8 38.2555 14.6781C38.2758 14.5561 38.3165 14.4341 38.3571 14.3121C38.3977 14.1902 38.4586 14.0682 38.5195 13.9665C38.5804 13.8649 38.6616 13.7632 38.7632 13.6819C38.8444 13.6006 38.9459 13.5193 39.0474 13.438C39.149 13.377 39.2505 13.316 39.3723 13.2753C39.4942 13.2347 39.616 13.194 39.7378 13.1737C39.8597 13.1533 39.9815 13.133 40.1033 13.133H49.525V14.3935ZM67.2109 13.072V14.3935H58.1345V18.2764H65.4241V19.6182H58.1345V23.5011H67.2109V24.8226H56.8755V13.072H67.2109Z" fill="white"/>
<path d="M85.9114 15.0643V18.5C85.9114 18.622 85.8911 18.7439 85.8708 18.8659C85.8505 18.9879 85.8099 19.1099 85.7693 19.2318C85.7287 19.3538 85.6678 19.4758 85.6069 19.5774C85.5256 19.6791 85.4647 19.7808 85.3632 19.8621C85.282 19.9434 85.1804 20.0247 85.0789 20.106C84.9774 20.167 84.8759 20.228 84.754 20.2687C84.6322 20.3093 84.5104 20.35 84.3885 20.3906C84.2667 20.411 84.1449 20.4313 84.023 20.4313H82.2971L85.8505 24.8022H84.1449L80.6117 20.4313H76.4695C76.2664 20.4313 76.0633 20.411 75.8603 20.3703V24.8022H74.5811V13.0923H84.0433C84.1652 13.0923 84.287 13.1126 84.4088 13.1329C84.5307 13.1533 84.6525 13.1939 84.7743 13.2346C84.8962 13.2753 84.9977 13.3362 85.0992 13.4176C85.3023 13.5599 85.4647 13.7428 85.6069 13.9461C85.6678 14.0478 85.7287 14.1698 85.7693 14.2917C85.8099 14.4137 85.8505 14.5357 85.8708 14.6577C85.8911 14.8 85.9114 14.9423 85.9114 15.0643ZM76.4491 19.1302H84.023C84.1043 19.1302 84.1855 19.1099 84.2667 19.0895C84.3479 19.0692 84.4088 19.0286 84.4495 18.9472C84.5104 18.8862 84.551 18.8253 84.5713 18.7439C84.5916 18.6626 84.6119 18.5813 84.6119 18.5V15.0643C84.6119 14.9016 84.551 14.739 84.4495 14.617C84.3479 14.495 84.1855 14.4137 84.023 14.4137H76.4491C76.3679 14.4137 76.2867 14.434 76.2055 14.4544C76.1243 14.4747 76.0633 14.5357 76.0227 14.5967C75.9618 14.6577 75.9212 14.7187 75.9009 14.8C75.8806 14.8813 75.8603 14.9626 75.8603 15.0439V18.4796C75.8603 18.6423 75.9212 18.8049 76.0633 18.9269C76.1446 19.0489 76.307 19.1302 76.4491 19.1302Z" fill="white"/>
<path fill-rule="evenodd" clip-rule="evenodd" d="M92.6943 13.072H104.025V14.3935H99.0093V24.8022H97.7301V14.3935H92.6943V13.072ZM110.929 24.8226V13.0924H112.208V24.8226H110.929ZM129.244 13.072H130.889L126.158 18.9473L130.909 24.8226H129.244L125.02 19.6182H121.365V24.8226H120.086V13.0924H121.386V18.2967H125.041L129.244 13.072Z" fill="white"/>
</svg>
