<svg width="148" height="41" viewBox="0 0 148 41" fill="none" xmlns="http://www.w3.org/2000/svg">
<g clip-path="url(#clip0_18_121)">
<path d="M61.5798 16.14C61.1765 14.62 60.1885 13.5 58.2528 13.5C55.3896 13.5 54.1999 16 54.1999 18.54C54.1999 21.08 55.3896 23.58 58.2528 23.58C60.3296 23.58 61.479 22.04 61.6604 20.12H63.9389C63.7574 23.3 61.479 25.48 58.2528 25.48C54.2403 25.48 51.8408 22.32 51.8408 18.54C51.8408 14.76 54.2403 11.6 58.2528 11.6C61.2572 11.62 63.6365 13.28 63.9187 16.12H61.5798V16.14Z" fill="white"/>
<path d="M65.3301 20.38C65.3301 17.44 67.1045 15.34 70.2096 15.34C73.3148 15.34 75.0892 17.46 75.0892 20.38C75.0892 23.32 73.3148 25.44 70.2096 25.44C67.1045 25.44 65.3301 23.32 65.3301 20.38ZM72.9519 20.38C72.9519 18.72 72.105 17 70.2096 17C68.3143 17 67.4674 18.72 67.4674 20.38C67.4674 22.04 68.3143 23.78 70.2096 23.78C72.105 23.78 72.9519 22.04 72.9519 20.38Z" fill="white"/>
<path d="M76.9238 11.92H79.0612V13.92H76.9238V11.92ZM76.9238 15.58H79.0612V25.18H76.9238V15.58Z" fill="white"/>
<path d="M81.3795 15.58H83.3959V17L83.4362 17.04C84.0613 15.98 85.2106 15.32 86.4406 15.34C88.5376 15.34 89.8684 16.46 89.8684 18.6V25.2H87.731V19.16C87.6907 17.66 87.0858 17 85.8357 17C84.4242 17 83.4967 18.12 83.4967 19.52V25.18H81.3594V15.58H81.3795Z" fill="white"/>
<path d="M104.084 25.18H102.592L102.229 23.62C100.979 25.02 99.8294 25.5 98.1962 25.5C94.1836 25.5 91.7842 22.34 91.7842 18.56C91.7842 14.78 94.1836 11.6 98.1962 11.6C101.12 11.6 103.56 13.14 103.923 16.12H101.644C101.422 14.38 99.8899 13.48 98.1962 13.48C95.333 13.48 94.1231 15.98 94.1231 18.52C94.1231 21.06 95.333 23.56 98.1962 23.56C100.596 23.6 101.906 22.16 101.947 19.92H98.3978V18.2H104.084V25.18Z" fill="white"/>
<path d="M107.996 20.9199C107.996 22.4199 108.822 23.7599 110.597 23.7599C111.827 23.7599 112.573 23.2199 112.956 22.1599H114.972C114.509 24.2599 112.714 25.4199 110.597 25.4199C107.572 25.4199 105.858 23.3199 105.858 20.3799C105.858 17.6599 107.653 15.3199 110.536 15.3199C113.581 15.3199 115.456 18.0599 115.113 20.9199H107.996ZM112.976 19.5199C112.895 18.1799 111.988 16.9799 110.536 16.9799C109.064 16.9799 108.056 18.0999 107.996 19.5199H112.976Z" fill="white"/>
<path d="M123.28 18.7999C123.118 17.6199 122.251 16.9999 121.062 16.9999C119.953 16.9999 118.4 17.5799 118.4 20.4999C118.4 22.0999 119.106 23.7799 120.961 23.7799C122.191 23.7799 123.058 22.9599 123.259 21.5799H125.397C124.993 24.0599 123.441 25.4399 120.961 25.4399C117.936 25.4399 116.263 23.2999 116.263 20.4799C116.263 17.5799 117.856 15.3199 121.041 15.3199C123.28 15.3199 125.195 16.4399 125.397 18.7999H123.28Z" fill="white"/>
<path d="M127.191 11.92H129.328V19.46L133.2 15.58H135.821L132.111 19.1L136.184 25.16H133.563L130.599 20.5L129.328 21.72V25.16H127.191V11.92Z" fill="white"/>
<path d="M136.749 20.38C136.749 17.44 138.523 15.34 141.628 15.34C144.734 15.34 146.508 17.46 146.508 20.38C146.508 23.32 144.734 25.44 141.628 25.44C138.523 25.44 136.749 23.32 136.749 20.38ZM144.391 20.38C144.391 18.72 143.544 17 141.628 17C139.713 17 138.886 18.72 138.886 20.38C138.886 22.04 139.733 23.78 141.628 23.78C143.524 23.78 144.391 22.04 144.391 20.38Z" fill="white"/>
<path d="M40.0038 20.14C40.0442 30.62 31.515 39.16 20.9493 39.2C10.3837 39.24 1.77387 30.78 1.73354 20.3C1.69321 9.82001 10.2224 1.28001 20.788 1.24001C31.3537 1.20001 39.9635 9.66001 40.0038 20.14Z" fill="#8DC63F"/>
<path d="M38.5521 20.1401C38.5924 29.8401 30.7085 37.7201 20.9292 37.7801C11.1499 37.8401 3.20552 30.0001 3.16519 20.3001C3.12487 10.6001 11.0088 2.72006 20.7881 2.66006C30.5472 2.62006 38.5118 10.4401 38.5521 20.1401Z" fill="#F9E988"/>
<path d="M21.1914 3.80002C22.3206 3.60002 23.4699 3.60002 24.599 3.80002C25.7282 3.98002 26.8372 4.34002 27.8454 4.88002C28.8535 5.44002 29.7206 6.18002 30.5876 6.88002C31.4546 7.58002 32.3216 8.30002 33.1484 9.08002C33.9952 9.86002 34.7211 10.72 35.326 11.68C35.9511 12.64 36.4552 13.66 36.8584 14.72C37.6246 16.86 37.8263 19.16 37.4835 21.4H37.3625C37.0399 19.26 36.4753 17.16 35.7091 15.12C35.3462 14.12 34.9026 13.14 34.4187 12.2C33.8944 11.26 33.3298 10.34 32.7048 9.46003C32.0595 8.56003 31.2933 7.78002 30.386 7.14002C29.4988 6.50002 28.4503 6.10002 27.4622 5.70002C26.4742 5.30002 25.4661 4.92003 24.4176 4.62003C23.3691 4.32003 22.3206 4.10002 21.2116 3.88002L21.1914 3.80002Z" fill="white"/>
<path d="M29.8425 13.94C28.552 13.56 27.2212 13.04 25.8703 12.52C25.7896 12.18 25.4872 11.76 24.8823 11.26C23.9951 10.5 22.3417 10.52 20.9101 10.86C19.3373 10.5 17.7646 10.36 16.2725 10.72C4.03322 14.06 10.9896 22.22 6.49316 30.42C7.1384 31.76 14.0141 39.62 23.9951 37.5C23.9951 37.5 20.5874 29.38 28.2697 25.48C34.5204 22.3 39.037 16.44 29.8425 13.94Z" fill="#8BC53F"/>
<path d="M31.3547 19.28C31.3547 19.68 31.0321 20.02 30.6289 20.02C30.2256 20.02 29.8828 19.7 29.8828 19.3C29.8828 18.9 30.2054 18.56 30.6087 18.56C31.012 18.54 31.3547 18.88 31.3547 19.28Z" fill="white"/>
<path d="M20.9297 10.86C21.8169 10.92 25.043 11.96 25.8697 12.52C25.1842 10.52 22.8452 10.26 20.9297 10.86Z" fill="#009345"/>
<path d="M21.7765 15.9C21.7765 17.78 20.2441 19.3 18.3487 19.3C16.4533 19.3 14.9209 17.78 14.9209 15.9C14.9209 14.02 16.4533 12.5 18.3487 12.5C20.2441 12.5 21.7765 14.02 21.7765 15.9Z" fill="white"/>
<path d="M20.7684 15.92C20.7684 17.24 19.6997 18.3 18.3689 18.32C17.0381 18.32 15.9695 17.26 15.9695 15.94C15.9695 14.62 17.0381 13.56 18.3689 13.56C19.6796 13.54 20.7684 14.6 20.7684 15.92Z" fill="#58595B"/>
<path d="M34.117 20.78C31.3344 22.72 28.1889 24.18 23.7126 24.18C21.6156 24.18 21.1922 21.98 19.8211 23.06C19.0952 23.62 16.5949 24.86 14.5987 24.78C12.6025 24.7 9.35621 23.52 8.44885 19.3C8.08591 23.54 7.90444 26.64 6.31152 30.22C9.49735 35.28 17.099 39.2 24.0151 37.52C23.269 32.38 27.8058 27.36 30.3464 24.78C31.2941 23.78 33.1693 22.18 34.117 20.78Z" fill="#8BC53F"/>
<path d="M34.0159 20.9C33.1287 21.66 32.1407 22.28 31.0922 22.76C30.0437 23.26 28.9347 23.66 27.8055 23.94C26.6763 24.24 25.4867 24.44 24.2971 24.34C23.1074 24.24 21.8774 23.82 21.0911 22.94L21.1314 22.9C22.0992 23.52 23.2284 23.74 24.3374 23.78C25.4665 23.82 26.5957 23.72 27.7047 23.5C28.8338 23.26 29.9227 22.94 30.9712 22.5C32.0398 22.1 33.048 21.54 33.9755 20.86L34.0159 20.9Z" fill="#58595B"/>
</g>
<defs>
<clipPath id="clip0_18_121">
<rect width="148" height="41" fill="white"/>
</clipPath>
</defs>
</svg>
