<svg width="184" height="41" viewBox="0 0 184 41" fill="none" xmlns="http://www.w3.org/2000/svg">
<g filter="url(#filter0_d_18_328)">
<circle cx="20.2326" cy="18.2326" r="16.2326" fill="#051937"/>
</g>
<g clip-path="url(#clip0_18_328)">
<rect width="11.4583" height="11.4583" transform="translate(14.5039 12.5034)" fill="#051937"/>
<path d="M22.1414 14.406H23.1874V12.5841C23.0069 12.5593 22.3863 12.5034 21.6634 12.5034C20.1552 12.5034 19.1221 13.4521 19.1221 15.1956V16.8003H17.4578V18.837H19.1221V23.9617H21.1626V18.8375H22.7596L23.0131 16.8008H21.1621V15.3976C21.1626 14.8089 21.3211 14.406 22.1414 14.406Z" fill="white"/>
</g>
<g filter="url(#filter1_d_18_328)">
<circle cx="68.2326" cy="18.2326" r="16.2326" fill="#051937"/>
</g>
<g clip-path="url(#clip1_18_328)">
<rect width="12.4132" height="12.4132" transform="translate(62.2473 11.5486)" fill="#051937"/>
<path d="M71.3003 11.5486H65.6074C63.7546 11.5486 62.2473 13.0559 62.2473 14.9087V20.6017C62.2473 22.4544 63.7546 23.9617 65.6074 23.9617H71.3004C73.1532 23.9617 74.6605 22.4544 74.6605 20.6017V14.9087C74.6605 13.0559 73.1532 11.5486 71.3003 11.5486V11.5486ZM73.9328 20.6017C73.9328 22.0532 72.7519 23.234 71.3003 23.234H65.6074C64.1559 23.234 62.975 22.0532 62.975 20.6017V14.9087C62.975 13.4572 64.1559 12.2763 65.6074 12.2763H71.3004C72.7519 12.2763 73.9328 13.4572 73.9328 14.9087V20.6017Z" fill="white"/>
<path d="M68.4539 14.3611C66.5824 14.3611 65.0598 15.8837 65.0598 17.7552C65.0598 19.6268 66.5824 21.1493 68.4539 21.1493C70.3255 21.1493 71.8481 19.6268 71.8481 17.7552C71.8481 15.8837 70.3255 14.3611 68.4539 14.3611ZM68.4539 20.4216C66.9837 20.4216 65.7875 19.2255 65.7875 17.7552C65.7875 16.285 66.9837 15.0888 68.4539 15.0888C69.9242 15.0888 71.1204 16.285 71.1204 17.7552C71.1204 19.2255 69.9242 20.4216 68.4539 20.4216Z" fill="white"/>
<path d="M71.9292 13.1555C71.3761 13.1555 70.9263 13.6055 70.9263 14.1584C70.9263 14.7115 71.3761 15.1615 71.9292 15.1615C72.4823 15.1615 72.9322 14.7115 72.9322 14.1584C72.9322 13.6054 72.4823 13.1555 71.9292 13.1555ZM71.9292 14.4337C71.7775 14.4337 71.654 14.3102 71.654 14.1584C71.654 14.0066 71.7775 13.8832 71.9292 13.8832C72.081 13.8832 72.2045 14.0066 72.2045 14.1584C72.2045 14.3102 72.081 14.4337 71.9292 14.4337Z" fill="white"/>
</g>
<g filter="url(#filter2_d_18_328)">
<circle cx="115.233" cy="18.2329" r="16.2326" fill="#051937"/>
</g>
<g clip-path="url(#clip2_18_328)">
<rect width="12.4132" height="12.4132" transform="translate(109.035 12.5037)" fill="#051937"/>
<path d="M121.449 14.8615C120.987 15.064 120.495 15.1982 119.982 15.2634C120.51 14.9484 120.912 14.4534 121.102 13.8568C120.61 14.15 120.067 14.3572 119.488 14.4728C119.021 13.9755 118.355 13.6675 117.629 13.6675C116.22 13.6675 115.086 14.811 115.086 16.213C115.086 16.4147 115.103 16.6086 115.145 16.7933C113.029 16.6901 111.157 15.6761 109.9 14.1314C109.68 14.5124 109.551 14.9484 109.551 15.4177C109.551 16.2991 110.005 17.0803 110.682 17.5326C110.273 17.5249 109.872 17.4062 109.532 17.2192C109.532 17.227 109.532 17.237 109.532 17.2471C109.532 18.4838 110.414 19.511 111.571 19.7476C111.364 19.8042 111.138 19.8314 110.904 19.8314C110.741 19.8314 110.576 19.8221 110.422 19.788C110.752 20.7958 111.687 21.5367 112.8 21.5607C111.934 22.238 110.835 22.6461 109.644 22.6461C109.436 22.6461 109.236 22.6368 109.035 22.6112C110.163 23.3381 111.499 23.7532 112.939 23.7532C117.622 23.7532 120.182 19.8741 120.182 16.5117C120.182 16.3992 120.179 16.2905 120.173 16.1827C120.678 15.8243 121.103 15.3766 121.449 14.8615Z" fill="white"/>
</g>
<g filter="url(#filter3_d_18_328)">
<circle cx="163.233" cy="18.2329" r="16.2326" fill="#051937"/>
</g>
<g clip-path="url(#clip3_18_328)">
<rect width="10.5035" height="10.5035" transform="translate(157.733 12.5037)" fill="#051937"/>
<path d="M168.234 23.0073V23.0069H168.237V19.1548C168.237 17.2703 167.831 15.8186 165.628 15.8186C164.569 15.8186 163.858 16.3998 163.568 16.9508H163.537V15.9945H161.448V23.0069H163.623V19.5346C163.623 18.6204 163.797 17.7364 164.929 17.7364C166.044 17.7364 166.061 18.7797 166.061 19.5933V23.0073H168.234Z" fill="white"/>
<path d="M157.906 15.9949H160.084V23.0073H157.906V15.9949Z" fill="white"/>
<path d="M158.995 12.5037C158.298 12.5037 157.733 13.0687 157.733 13.765C157.733 14.4612 158.298 15.0381 158.995 15.0381C159.691 15.0381 160.256 14.4612 160.256 13.765C160.256 13.0687 159.691 12.5037 158.995 12.5037V12.5037Z" fill="white"/>
</g>
<defs>
<filter id="filter0_d_18_328" x="0" y="0" width="40.4653" height="40.4653" filterUnits="userSpaceOnUse" color-interpolation-filters="sRGB">
<feFlood flood-opacity="0" result="BackgroundImageFix"/>
<feColorMatrix in="SourceAlpha" type="matrix" values="0 0 0 0 0 0 0 0 0 0 0 0 0 0 0 0 0 0 127 0" result="hardAlpha"/>
<feOffset dy="2"/>
<feGaussianBlur stdDeviation="2"/>
<feComposite in2="hardAlpha" operator="out"/>
<feColorMatrix type="matrix" values="0 0 0 0 0.258824 0 0 0 0 0.768627 0 0 0 0 0.976471 0 0 0 0.25 0"/>
<feBlend mode="normal" in2="BackgroundImageFix" result="effect1_dropShadow_18_328"/>
<feBlend mode="normal" in="SourceGraphic" in2="effect1_dropShadow_18_328" result="shape"/>
</filter>
<filter id="filter1_d_18_328" x="48" y="0" width="40.4653" height="40.4653" filterUnits="userSpaceOnUse" color-interpolation-filters="sRGB">
<feFlood flood-opacity="0" result="BackgroundImageFix"/>
<feColorMatrix in="SourceAlpha" type="matrix" values="0 0 0 0 0 0 0 0 0 0 0 0 0 0 0 0 0 0 127 0" result="hardAlpha"/>
<feOffset dy="2"/>
<feGaussianBlur stdDeviation="2"/>
<feComposite in2="hardAlpha" operator="out"/>
<feColorMatrix type="matrix" values="0 0 0 0 0.258824 0 0 0 0 0.768627 0 0 0 0 0.976471 0 0 0 0.25 0"/>
<feBlend mode="normal" in2="BackgroundImageFix" result="effect1_dropShadow_18_328"/>
<feBlend mode="normal" in="SourceGraphic" in2="effect1_dropShadow_18_328" result="shape"/>
</filter>
<filter id="filter2_d_18_328" x="95.0002" y="0.000244141" width="40.4653" height="40.4653" filterUnits="userSpaceOnUse" color-interpolation-filters="sRGB">
<feFlood flood-opacity="0" result="BackgroundImageFix"/>
<feColorMatrix in="SourceAlpha" type="matrix" values="0 0 0 0 0 0 0 0 0 0 0 0 0 0 0 0 0 0 127 0" result="hardAlpha"/>
<feOffset dy="2"/>
<feGaussianBlur stdDeviation="2"/>
<feComposite in2="hardAlpha" operator="out"/>
<feColorMatrix type="matrix" values="0 0 0 0 0.258824 0 0 0 0 0.768627 0 0 0 0 0.976471 0 0 0 0.25 0"/>
<feBlend mode="normal" in2="BackgroundImageFix" result="effect1_dropShadow_18_328"/>
<feBlend mode="normal" in="SourceGraphic" in2="effect1_dropShadow_18_328" result="shape"/>
</filter>
<filter id="filter3_d_18_328" x="143" y="0.000244141" width="40.4653" height="40.4653" filterUnits="userSpaceOnUse" color-interpolation-filters="sRGB">
<feFlood flood-opacity="0" result="BackgroundImageFix"/>
<feColorMatrix in="SourceAlpha" type="matrix" values="0 0 0 0 0 0 0 0 0 0 0 0 0 0 0 0 0 0 127 0" result="hardAlpha"/>
<feOffset dy="2"/>
<feGaussianBlur stdDeviation="2"/>
<feComposite in2="hardAlpha" operator="out"/>
<feColorMatrix type="matrix" values="0 0 0 0 0.258824 0 0 0 0 0.768627 0 0 0 0 0.976471 0 0 0 0.25 0"/>
<feBlend mode="normal" in2="BackgroundImageFix" result="effect1_dropShadow_18_328"/>
<feBlend mode="normal" in="SourceGraphic" in2="effect1_dropShadow_18_328" result="shape"/>
</filter>
<clipPath id="clip0_18_328">
<rect width="11.4583" height="11.4583" fill="white" transform="translate(14.5039 12.5034)"/>
</clipPath>
<clipPath id="clip1_18_328">
<rect width="12.4132" height="12.4132" fill="white" transform="translate(62.2473 11.5486)"/>
</clipPath>
<clipPath id="clip2_18_328">
<rect width="12.4132" height="12.4132" fill="white" transform="translate(109.035 12.5037)"/>
</clipPath>
<clipPath id="clip3_18_328">
<rect width="10.5035" height="10.5035" fill="white" transform="translate(157.733 12.5037)"/>
</clipPath>
</defs>
</svg>
